<svg width="63" height="63" viewBox="0 0 63 63" fill="none" xmlns="http://www.w3.org/2000/svg">
<g id="Frame" clip-path="url(#clip0_1_87)">
<path id="Vector" d="M31.4985 28.8754V21.0004L20.9985 31.5004L31.4985 42.0004V34.1254H41.9985V28.8754H31.4985ZM31.4985 5.25037C17.0085 5.25037 5.24854 17.0104 5.24854 31.5004C5.24854 45.9904 17.0085 57.7504 31.4985 57.7504C45.9885 57.7504 57.7485 45.9904 57.7485 31.5004C57.7485 17.0104 45.9885 5.25037 31.4985 5.25037ZM31.4985 52.5004C19.896 52.5004 10.4985 43.1029 10.4985 31.5004C10.4985 19.8979 19.896 10.5004 31.4985 10.5004C43.101 10.5004 52.4985 19.8979 52.4985 31.5004C52.4985 43.1029 43.101 52.5004 31.4985 52.5004Z" fill="#59595B"/>
</g>
<defs>
<clipPath id="clip0_1_87">
<rect width="63" height="63" fill="white" transform="matrix(-1 0 0 1 63 0)"/>
</clipPath>
</defs>
</svg>
