<svg width="64" height="63" viewBox="0 0 64 63" fill="none" xmlns="http://www.w3.org/2000/svg">
<g id="Frame" clip-path="url(#clip0_1_90)">
<path id="Vector" d="M32.0015 28.8754V21.0004L42.5015 31.5004L32.0015 42.0004V34.1254H21.5015V28.8754H32.0015ZM32.0015 5.25037C46.4915 5.25037 58.2515 17.0104 58.2515 31.5004C58.2515 45.9904 46.4915 57.7504 32.0015 57.7504C17.5115 57.7504 5.75146 45.9904 5.75146 31.5004C5.75146 17.0104 17.5115 5.25037 32.0015 5.25037ZM32.0015 52.5004C43.604 52.5004 53.0015 43.1029 53.0015 31.5004C53.0015 19.8979 43.604 10.5004 32.0015 10.5004C20.399 10.5004 11.0015 19.8979 11.0015 31.5004C11.0015 43.1029 20.399 52.5004 32.0015 52.5004Z" fill="#59595B"/>
</g>
<defs>
<clipPath id="clip0_1_90">
<rect width="63" height="63" fill="white" transform="translate(0.5)"/>
</clipPath>
</defs>
</svg>
