<svg width="28" height="27" viewBox="0 0 28 27" fill="none" xmlns="http://www.w3.org/2000/svg">
<g id="icon/ facebook" clip-path="url(#clip0_1_138)">
<path id="Vector" d="M13.9285 2.20239C7.84666 2.20239 2.91663 7.13242 2.91663 13.2143C2.91663 18.7103 6.94368 23.266 12.2085 24.093V16.3967H9.41145V13.2143H12.2085V10.7884C12.2085 8.02879 13.8514 6.50474 16.3677 6.50474C17.5724 6.50474 18.8321 6.71948 18.8321 6.71948V9.4284H17.4446C16.0759 9.4284 15.6497 10.2774 15.6497 11.1485V13.2143H18.7033L18.2155 16.3967H15.6497V24.093C20.9134 23.2671 24.9404 18.7092 24.9404 13.2143C24.9404 7.13242 20.0104 2.20239 13.9285 2.20239Z" fill="white"/>
</g>
<defs>
<clipPath id="clip0_1_138">
<rect width="26.4286" height="26.4286" fill="white" transform="translate(0.714233)"/>
</clipPath>
</defs>
</svg>
