<svg width="28" height="27" viewBox="0 0 28 27" fill="none" xmlns="http://www.w3.org/2000/svg">
<g id="icon/instagram" clip-path="url(#clip0_1_137)">
<path id="Vector" d="M14.0715 9.91072C13.1953 9.91072 12.355 10.2588 11.7355 10.8783C11.116 11.4979 10.7679 12.3381 10.7679 13.2143C10.7679 14.0905 11.116 14.9307 11.7355 15.5503C12.355 16.1698 13.1953 16.5179 14.0715 16.5179C14.9476 16.5179 15.7879 16.1698 16.4075 15.5503C17.027 14.9307 17.375 14.0905 17.375 13.2143C17.375 12.3381 17.027 11.4979 16.4075 10.8783C15.7879 10.2588 14.9476 9.91072 14.0715 9.91072ZM14.0715 7.70834C15.5317 7.70834 16.9322 8.28843 17.9648 9.321C18.9973 10.3536 19.5774 11.754 19.5774 13.2143C19.5774 14.6746 18.9973 16.075 17.9648 17.1076C16.9322 18.1402 15.5317 18.7202 14.0715 18.7202C12.6112 18.7202 11.2107 18.1402 10.1782 17.1076C9.14561 16.075 8.56552 14.6746 8.56552 13.2143C8.56552 11.754 9.14561 10.3536 10.1782 9.321C11.2107 8.28843 12.6112 7.70834 14.0715 7.70834ZM21.2292 7.43305C21.2292 7.79811 21.0842 8.14823 20.826 8.40637C20.5679 8.66451 20.2178 8.80953 19.8527 8.80953C19.4877 8.80953 19.1375 8.66451 18.8794 8.40637C18.6213 8.14823 18.4762 7.79811 18.4762 7.43305C18.4762 7.06798 18.6213 6.71786 18.8794 6.45972C19.1375 6.20158 19.4877 6.05656 19.8527 6.05656C20.2178 6.05656 20.5679 6.20158 20.826 6.45972C21.0842 6.71786 21.2292 7.06798 21.2292 7.43305ZM14.0715 4.40477C11.3471 4.40477 10.9022 4.41248 9.63478 4.46864C8.77144 4.50939 8.19222 4.62501 7.65484 4.83424C7.17692 5.01924 6.83225 5.24058 6.46555 5.60837C6.12089 5.94137 5.85588 6.34792 5.69031 6.79766C5.48109 7.33724 5.36546 7.91537 5.32582 8.7776C5.26856 9.99331 5.26195 10.4184 5.26195 13.2143C5.26195 15.9386 5.26966 16.3835 5.32582 17.651C5.36656 18.5132 5.48219 19.0936 5.69031 19.6298C5.87752 20.1088 6.09775 20.4535 6.46335 20.8191C6.83445 21.1891 7.17912 21.4105 7.65264 21.5933C8.19662 21.8036 8.77585 21.9203 9.63478 21.9599C10.8505 22.0172 11.2756 22.0238 14.0715 22.0238C16.7958 22.0238 17.2407 22.0161 18.5082 21.9599C19.3693 21.9192 19.9496 21.8036 20.487 21.5955C20.9638 21.4094 21.3107 21.188 21.6763 20.8224C22.0474 20.4513 22.2687 20.1066 22.4515 19.6331C22.6608 19.0902 22.7775 18.5099 22.8171 17.651C22.8744 16.4353 22.881 16.0102 22.881 13.2143C22.881 10.49 22.8733 10.0451 22.8171 8.7776C22.7764 7.91647 22.6608 7.33504 22.4515 6.79766C22.2856 6.34838 22.021 5.94199 21.6774 5.60837C21.3445 5.26353 20.938 4.9985 20.4881 4.83314C19.9485 4.62391 19.3693 4.50829 18.5082 4.46864C17.2925 4.41138 16.8674 4.40477 14.0715 4.40477ZM14.0715 2.20239C17.0634 2.20239 17.4367 2.2134 18.6106 2.26846C19.7833 2.32352 20.5817 2.50742 21.2843 2.78052C22.0111 3.06022 22.6233 3.43903 23.2356 4.05019C23.7955 4.60067 24.2288 5.26655 24.5053 6.0015C24.7772 6.70296 24.9622 7.50242 25.0173 8.67519C25.0691 9.84906 25.0834 10.2224 25.0834 13.2143C25.0834 16.2062 25.0724 16.5795 25.0173 17.7534C24.9622 18.9262 24.7772 19.7245 24.5053 20.4271C24.2296 21.1624 23.7962 21.8285 23.2356 22.3784C22.6849 22.9382 22.0191 23.3714 21.2843 23.6481C20.5828 23.9201 19.7833 24.1051 18.6106 24.1601C17.4367 24.2119 17.0634 24.2262 14.0715 24.2262C11.0795 24.2262 10.7062 24.2152 9.53237 24.1601C8.3596 24.1051 7.56124 23.9201 6.85868 23.6481C6.12344 23.3722 5.45744 22.9388 4.90737 22.3784C4.34731 21.828 3.91402 21.1621 3.6377 20.4271C3.3646 19.7256 3.1807 18.9262 3.12564 17.7534C3.07389 16.5795 3.05957 16.2062 3.05957 13.2143C3.05957 10.2224 3.07058 9.84906 3.12564 8.67519C3.1807 7.50132 3.3646 6.70406 3.6377 6.0015C3.91325 5.2661 4.34665 4.60004 4.90737 4.05019C5.4576 3.48994 6.12355 3.05662 6.85868 2.78052C7.56124 2.50742 8.3585 2.32352 9.53237 2.26846C10.7062 2.21671 11.0795 2.20239 14.0715 2.20239Z" fill="white"/>
</g>
<defs>
<clipPath id="clip0_1_137">
<rect width="26.4286" height="26.4286" fill="white" transform="translate(0.857178)"/>
</clipPath>
</defs>
</svg>
