<svg width="20" height="21" viewBox="0 0 20 21" fill="none" xmlns="http://www.w3.org/2000/svg">
<g id="Frame 385/icon/small/look" clip-path="url(#clip0_1_53)">
<path id="Vector" d="M15.0258 14.3475L18.595 17.9158L17.4158 19.095L13.8475 15.5258C12.5197 16.5901 10.8683 17.169 9.16663 17.1666C5.02663 17.1666 1.66663 13.8066 1.66663 9.66663C1.66663 5.52663 5.02663 2.16663 9.16663 2.16663C13.3066 2.16663 16.6666 5.52663 16.6666 9.66663C16.669 11.3683 16.0901 13.0197 15.0258 14.3475ZM13.3541 13.7291C14.4117 12.6415 15.0023 11.1837 15 9.66663C15 6.44329 12.3891 3.83329 9.16663 3.83329C5.94329 3.83329 3.33329 6.44329 3.33329 9.66663C3.33329 12.8891 5.94329 15.5 9.16663 15.5C10.6837 15.5023 12.1415 14.9117 13.2291 13.8541L13.3541 13.7291Z" fill="white"/>
</g>
<defs>
<clipPath id="clip0_1_53">
<rect width="20" height="20" fill="white" transform="translate(0 0.5)"/>
</clipPath>
</defs>
</svg>
