<svg width="27" height="27" viewBox="0 0 27 27" fill="none" xmlns="http://www.w3.org/2000/svg">
<g id="icon/twitter" clip-path="url(#clip0_1_136)">
<path id="Vector" d="M24.4046 6.2283C23.5639 6.60017 22.6723 6.84439 21.7595 6.95289C22.7217 6.37744 23.4418 5.4718 23.7857 4.40473C22.8827 4.94211 21.8927 5.31872 20.8609 5.52244C20.1678 4.78088 19.2492 4.28907 18.2477 4.12347C17.2463 3.95788 16.2182 4.12777 15.3233 4.60675C14.4284 5.08573 13.7168 5.84694 13.2992 6.77206C12.8815 7.69718 12.7812 8.73437 13.0138 9.72238C11.1827 9.6306 9.39128 9.15474 7.75597 8.3257C6.12065 7.49666 4.67796 6.33297 3.52157 4.91018C3.11225 5.61324 2.89715 6.41245 2.8983 7.22598C2.8983 8.82271 3.71098 10.2333 4.94651 11.0592C4.21533 11.0362 3.50025 10.8387 2.86086 10.4833V10.5406C2.86108 11.604 3.22906 12.6346 3.90242 13.4577C4.57577 14.2808 5.51306 14.8456 6.55535 15.0565C5.8766 15.2405 5.16489 15.2676 4.4741 15.1358C4.76798 16.0512 5.34075 16.8517 6.11223 17.4253C6.8837 17.999 7.81526 18.3169 8.77645 18.3348C7.82115 19.0851 6.72733 19.6397 5.55754 19.9669C4.38775 20.2942 3.16493 20.3877 1.95898 20.2421C4.06413 21.5959 6.51472 22.3146 9.01761 22.3123C17.4891 22.3123 22.1218 15.2944 22.1218 9.20813C22.1218 9.00991 22.1163 8.80949 22.1075 8.61348C23.0092 7.96176 23.7874 7.15443 24.4057 6.22941L24.4046 6.2283Z" fill="white"/>
</g>
<defs>
<clipPath id="clip0_1_136">
<rect width="26.4286" height="26.4286" fill="white"/>
</clipPath>
</defs>
</svg>
