<svg width="27" height="27" viewBox="0 0 27 27" fill="none" xmlns="http://www.w3.org/2000/svg">
<g id="icon/youtube" clip-path="url(#clip0_1_139)">
<path id="Vector" d="M24.2944 7.15556C24.7976 9.11788 24.7976 13.2143 24.7976 13.2143C24.7976 13.2143 24.7976 17.3107 24.2944 19.2731C24.0147 20.3577 23.1965 21.2112 22.1603 21.4997C20.2783 22.0238 13.7857 22.0238 13.7857 22.0238C13.7857 22.0238 7.29639 22.0238 5.41115 21.4997C4.37053 21.2067 3.55345 20.3544 3.27705 19.2731C2.7738 17.3107 2.7738 13.2143 2.7738 13.2143C2.7738 13.2143 2.7738 9.11788 3.27705 7.15556C3.55675 6.07089 4.37493 5.21746 5.41115 4.92895C7.29639 4.40478 13.7857 4.40479 13.7857 4.40479C13.7857 4.40479 20.2783 4.40478 22.1603 4.92895C23.2009 5.22187 24.018 6.07419 24.2944 7.15556ZM11.5833 17.0685L18.1905 13.2143L11.5833 9.36014V17.0685Z" fill="white"/>
</g>
<defs>
<clipPath id="clip0_1_139">
<rect width="26.4286" height="26.4286" fill="white" transform="translate(0.571411)"/>
</clipPath>
</defs>
</svg>
